<?xml version="1.0" encoding="utf-8"?>
<!-- Generator: Adobe Illustrator 22.0.0, SVG Export Plug-In . SVG Version: 6.00 Build 0)  -->
<svg version="1.1" xmlns="http://www.w3.org/2000/svg" xmlns:xlink="http://www.w3.org/1999/xlink" x="0px" y="0px"
	 viewBox="0 0 500 500" style="enable-background:new 0 0 500 500;" xml:space="preserve">
<style type="text/css">
	.st0{fill:#FFFFFF;}
	.st1{fill:#FFDCC4;}
	.st2{fill:#E6EAED;}
	.st3{fill:#B3DFFC;}
	.st4{opacity:0.82;fill:url(#SVGID_1_);}
	.st5{opacity:0.82;fill:url(#SVGID_2_);}
	.st6{opacity:0.82;fill:url(#SVGID_3_);}
	.st7{fill:#23A263;}
	.st8{fill:#FAF9FB;}
	.st9{fill:#EE3D1E;}
	.st10{fill:#B3B3B3;}
	.st11{fill:#4B4C63;}
	.st12{opacity:0.32;fill:#FFFFFF;}
	.st13{fill:#1EBBF0;}
	.st14{clip-path:url(#SVGID_5_);fill:#F3921D;}
	.st15{clip-path:url(#SVGID_5_);fill:#FAF9FB;}
	.st16{clip-path:url(#SVGID_7_);fill:#F3BA40;}
	.st17{clip-path:url(#SVGID_9_);fill:#E7E7E5;}
	.st18{clip-path:url(#SVGID_9_);fill:#E6EAED;}
	.st19{fill:#1088D7;}
	.st20{clip-path:url(#SVGID_11_);fill:#0E76BB;}
	.st21{clip-path:url(#SVGID_13_);fill:#E7E7E5;}
	.st22{clip-path:url(#SVGID_13_);fill:#E6EAED;}
	.st23{fill:url(#SVGID_14_);}
	.st24{fill:#FEC4AD;}
	.st25{fill:#4097A5;}
	.st26{fill:url(#SVGID_15_);}
	.st27{fill:url(#SVGID_16_);}
	.st28{fill:url(#SVGID_17_);}
	.st29{fill:url(#SVGID_18_);}
	.st30{fill:url(#SVGID_19_);}
	.st31{fill:#97A3CC;}
	.st32{fill:#FF3A46;}
	.st33{fill:#A6AEBA;}
	.st34{fill:#613531;}
	.st35{fill:#F3BA40;}
	.st36{fill:#75769A;}
	.st37{fill:#23232E;}
	.st38{fill:#FEB200;}
	.st39{fill:none;stroke:#FAC500;stroke-miterlimit:10;}
	.st40{fill:#FC9D00;}
	.st41{clip-path:url(#SVGID_21_);}
	.st42{fill:#5657E5;}
	.st43{fill:#45BCA7;}
	.st44{clip-path:url(#SVGID_23_);fill:#3F9371;}
	.st45{clip-path:url(#SVGID_25_);fill:#E7E7E5;}
	.st46{clip-path:url(#SVGID_25_);fill:#E6EAED;}
	.st47{fill:#282C3B;}
	.st48{fill:#133A50;}
	.st49{fill:#F8C9A5;}
	.st50{fill:#D2DCEB;}
	.st51{display:none;}
	.st52{display:inline;}
	.st53{fill:#2A2A2A;}
</style>
<g id="BACKGROUND">
	<g>
		<rect class="st0" width="500" height="500"/>
		<g>
			<g>
				<ellipse class="st1" cx="258.1" cy="431.3" rx="235.3" ry="10.1"/>
				<path class="st2" d="M22.8,429.5c0,0,105.4,4.4,235.3,4.4s235.3-4.4,235.3-4.4c0-3-105.4-5.4-235.3-5.4S22.8,426.5,22.8,429.5z"
					/>
			</g>
			<g>
				<path class="st3" d="M56.9,425.8c0.2-16.4-3.7-33.1-8.4-48.7c-6.3-20.9-14.2-41.7-15.6-63.7c-1.5-22.1,4.9-46.5,21.3-58.3
					c19.1-13.7,47.2-7.5,62.6-26.4c15.3-18.7,8.1-48.7,10.3-74.2c3.7-41.3,34.6-73.6,68.2-88.9c44.6-20.4,113.2-23.6,155.8,1.9
					c25.9,15.5,52,40.6,53.3,83.9c0.8,25.2-5.6,50.3-3.7,75.5c2.1,27.3,7.7,33.5,49.7,53.8c50.6,24.4,22.5,101.5,24.8,145.2H56.9z"
					/>
				<g>
					<g>
						<linearGradient id="SVGID_1_" gradientUnits="userSpaceOnUse" x1="304.455" y1="99.47" x2="304.455" y2="57">
							<stop  offset="0" style="stop-color:#FFFFFF;stop-opacity:0"/>
							<stop  offset="0.1406" style="stop-color:#FFFFFF;stop-opacity:0.1413"/>
							<stop  offset="0.9946" style="stop-color:#FFFFFF"/>
						</linearGradient>
						<path class="st4" d="M387.3,99.5H221.6c6.6-3.8-1.5-4.3,9.1-3.4c5.6,0.5,11.1,1.6,15.6-1.9c4.4-3.5,7.5-8.4,11.4-12.4
							c3.9-4,9.5-7.3,15-5.9c3.5,0.8,6.6,3.5,10.2,3.5c9.8-0.1,11-18.2,20.8-18.9c5.6-0.4,10.6,5.5,15.9,3.9
							c2.9-0.9,4.7-3.6,6.7-5.9c0.5-0.5,1-1,1.5-1.5c8.3,2.7,16.2,6.2,23.3,10.4C364.2,75.3,377.4,85.6,387.3,99.5z"/>
						<linearGradient id="SVGID_2_" gradientUnits="userSpaceOnUse" x1="435.945" y1="329.11" x2="435.945" y2="297.46">
							<stop  offset="0" style="stop-color:#FFFFFF;stop-opacity:0"/>
							<stop  offset="0.1406" style="stop-color:#FFFFFF;stop-opacity:0.1413"/>
							<stop  offset="0.9946" style="stop-color:#FFFFFF"/>
						</linearGradient>
						<path class="st5" d="M480.3,329.1h-88.6c4.8-2.8-1.1-3.2,6.7-2.5c4.1,0.3,8.2,1.2,11.4-1.4c3.2-2.5,5.5-6.1,8.4-9.1
							c2.9-2.9,7-5.3,11-4.3c2.6,0.6,4.8,2.6,7.5,2.6c7.2-0.1,8.1-13.3,15.2-13.9c4.1-0.3,7.7,4,11.6,2.9c2.1-0.6,3.4-2.7,4.9-4.3
							c0.5-0.6,1.1-1.1,1.8-1.6C476.1,306.4,479.1,317.3,480.3,329.1z"/>
						<linearGradient id="SVGID_3_" gradientUnits="userSpaceOnUse" x1="128.1" y1="264.72" x2="128.1" y2="220.45">
							<stop  offset="0" style="stop-color:#FFFFFF;stop-opacity:0"/>
							<stop  offset="0.1406" style="stop-color:#FFFFFF;stop-opacity:0.1413"/>
							<stop  offset="0.9946" style="stop-color:#FFFFFF"/>
						</linearGradient>
						<path class="st6" d="M211.1,264.7c-3.4-0.2-6.7-0.7-10.1-0.7H45.1c9.7-15.8,31.8-18.1,31.8-18.1c14.7-3.4,29.9-5.1,39.8-17.3
							c2.1-2.6,3.7-5.3,5.1-8.2c6.1,1.2,11.5,5.4,14.3,10.9c1.6,3.3,2.4,7,4.3,10.1c1.9,3.1,5.7,5.7,9.1,4.5
							c2.8-0.9,4.6-3.9,7.4-4.5c3.5-0.7,6.6,2.4,8.5,5.5c1.9,3.1,3.8,6.6,7.3,7.5c2.5,0.6,5-0.4,7.6-0.9
							C191.3,251.3,201.9,258.2,211.1,264.7z"/>
					</g>
				</g>
			</g>
		</g>
	</g>
</g>
<g id="OBJECTS">
	<g>
		<g>
			<rect x="355.9" y="290.4" class="st7" width="73.3" height="4.5"/>
			<rect x="353.1" y="291.3" class="st8" width="73.3" height="4.5"/>
			<polygon class="st8" points="408,296.5 427.1,425.1 448.8,419.2 429.3,290.7 			"/>
			<polygon class="st7" points="411.1,295.7 408,296.5 427.6,425.4 430.7,424.5 			"/>
			<polygon class="st7" points="426.5,291.5 445.6,420.1 448.8,419.2 429.3,290.7 			"/>
			<polygon class="st7" points="408,296.5 345.9,298 369.1,422.7 427.6,425.4 			"/>
			<polygon class="st8" points="362.7,354.1 358.9,328.8 405.5,327.1 409.4,352.4 			"/>
		</g>
		<g>
			<rect x="329.5" y="290.4" class="st9" width="73.3" height="4.5"/>
			<rect x="326.8" y="291.3" class="st8" width="73.3" height="4.5"/>
			<polygon class="st8" points="381.6,296.5 400.7,425.1 422.4,419.2 402.9,290.7 			"/>
			<polygon class="st9" points="384.7,295.7 381.6,296.5 401.2,425.4 404.3,424.5 			"/>
			<polygon class="st9" points="400.1,291.5 419.2,420.1 422.4,419.2 402.9,290.7 			"/>
			<polygon class="st9" points="381.6,296.5 319.5,298 342.7,422.7 401.2,425.4 			"/>
			<polygon class="st10" points="381.6,296.5 319.5,298 342.7,422.7 401.2,425.4 			"/>
			<polygon class="st8" points="336.3,354.1 332.5,328.8 379.1,327.1 383,352.4 			"/>
		</g>
		<g>
			<g>
				<path class="st11" d="M391.7,275.3c-1.2,2.8-6.3,15.5-7.1,18.1c-0.8,2.5,4.2,1.3,5.6-0.3c1.7-1.9,1.5-3.7,2.8-6.9
					c2.2-5.4,2.5-7,4.1-8.1c1.1-0.7,10.7-2.2,13.2-2.5c2.5-0.3,4.8-2.2,7.9-3.1c3-0.9,8.9-1.7,8.9-1.7l-0.3-3.7c0,0-14.8,2-24.7,4.1
					C395,272.8,392.1,274.4,391.7,275.3z"/>
			</g>
			<g>
				<path class="st11" d="M365.3,275.3c1.2,2.8,6.3,15.5,7.1,18.1c0.8,2.5-4.2,1.3-5.6-0.3c-1.7-1.9-1.5-3.7-2.8-6.9
					c-2.2-5.4-2.5-7-4.1-8.1c-1.1-0.7-10.7-2.2-13.2-2.5c-2.5-0.3-4.8-2.2-7.9-3.1c-3-0.9-8.9-1.7-8.9-1.7l0.3-3.7
					c0,0,14.8,2,24.7,4.1C362,272.8,364.9,274.4,365.3,275.3z"/>
			</g>
			<g>
				<path class="st11" d="M328.1,268.1l0,3.1c0,0.6,0.4,1.2,0.9,1.6c1.4,1,2.6,3.1,2.9,4.1c0.7,1.8,3.3,11.5,8,14.9
					c4.7,3.4,19.5,2.7,23.3,1.1c8.6-3.5,10.6-17.9,11.9-18.7c1.3-0.8,4-0.8,5.3,0c1.3,0.8,3.5,15.1,12.2,18.5
					c3.9,1.5,18.7,2,23.3-1.5c4.6-3.5,7.1-13.3,7.8-15.1c0.3-0.9,1.5-3.1,2.9-4.1c0.5-0.4,0.9-1,0.9-1.6l0-3.1c0-1-0.8-1.8-1.8-1.9
					c-6.7-0.4-25.2-2.1-40.8,0.9c-0.8,0.2-1.7,0.3-2.5,0.5c-3,0.6-6.1,0.6-9.2,0.1c-0.8-0.1-1.7-0.3-2.5-0.4
					c-15.6-2.7-34.1-0.8-40.8-0.2C328.8,266.3,328.1,267.1,328.1,268.1z M384.7,271.6c0.7-2.4,1.7-2.9,8.8-3.8
					c7.1-1,24.6-1.2,26.6,1.9c1,1.6,1.6,7.4-2,15.4c-3.6,8-12.9,7.1-18.1,7c-6.7-0.1-9.5-2.5-11.7-6.9
					C386,280.8,383.9,274.3,384.7,271.6z M335.5,270.3c1.9-3.1,19.4-3.1,26.5-2.3c7.1,0.8,8.1,1.3,8.9,3.7c0.9,2.7-1.1,9.2-3.3,13.6
					c-2.1,4.4-5,6.8-11.6,7.1c-5.2,0.2-14.5,1.2-18.2-6.8C334,277.7,334.5,271.9,335.5,270.3z"/>
				<path class="st12" d="M362,268c7.1,0.8,8.1,1.3,8.9,3.7c0.9,2.7-1.1,9.2-3.3,13.6c-2.1,4.4-5,6.8-11.6,7.1
					c-5.2,0.2-14.5,1.2-18.2-6.8c-3.7-7.9-3.2-13.8-2.3-15.3C337.4,267.1,354.9,267.1,362,268z"/>
				<path class="st12" d="M393.5,267.7c7.1-1,24.6-1.2,26.6,1.9c1,1.6,1.6,7.4-2,15.4c-3.6,8-12.9,7.1-18.1,7
					c-6.7-0.1-9.5-2.5-11.7-6.9c-2.2-4.4-4.3-10.9-3.5-13.6C385.4,269.2,386.4,268.7,393.5,267.7z"/>
			</g>
		</g>
		<g>
			<g>
				<g>
					<polygon class="st8" points="332.7,281 332,425 355.1,425 355.1,281 					"/>
					<polygon class="st13" points="336.6,281 332.7,281 332.6,425.4 336.6,425.4 					"/>
					<polygon class="st13" points="351.6,281 350.9,425 355.1,425 355.1,281 					"/>
					<rect x="253.3" y="281" class="st13" width="79.3" height="144.4"/>
					<rect x="253.3" y="281" class="st10" width="79.3" height="144.4"/>
					
						<rect x="234.1" y="325.4" transform="matrix(-1.836970e-16 1 -1 -1.836970e-16 648.6143 61.2198)" class="st10" width="119.1" height="59.1"/>
				</g>
			</g>
		</g>
	</g>
	<g>
		<g>
			<defs>
				<path id="SVGID_4_" d="M94.3,425.5v-41.2h188.5c5.5,0,10,4.5,10,10v21.2c0,5.5-4.5,10-10,10H94.3z"/>
			</defs>
			<clipPath id="SVGID_5_">
				<use xlink:href="#SVGID_4_"  style="overflow:visible;"/>
			</clipPath>
			<path class="st14" d="M94.3,425.5v-41.2h190.7c4.4,0,7.9,3.5,7.9,7.9v25.4c0,4.4-3.5,7.9-7.9,7.9H94.3z"/>
			<path class="st15" d="M83.6,425.5v-41.2h188.6c5.5,0,10,4.5,10,10v21.3c0,5.5-4.5,10-10,10H83.6z"/>
			<path class="st14" d="M72.9,425.5v-41.2h189.6c4.9,0,8.9,4,8.9,8.9v23.4c0,4.9-4,8.9-8.9,8.9H72.9z"/>
			<path class="st15" d="M44.8,425.5v-41.2h162c5.5,0,10,4.5,10,10v21.3c0,5.5-4.5,10-10,10H44.8z"/>
			<path class="st14" d="M34,425.5v-41.2h163c4.9,0,8.9,4,8.9,8.9v23.4c0,4.9-4,8.9-8.9,8.9H34z"/>
		</g>
		<g>
			<defs>
				<path id="SVGID_6_" d="M73.3,425.5v-41.2h106c5.5,0,10,4.5,10,10v21.2c0,5.5-4.5,10-10,10H73.3z"/>
			</defs>
			<clipPath id="SVGID_7_">
				<use xlink:href="#SVGID_6_"  style="overflow:visible;"/>
			</clipPath>
			
				<rect x="110.7" y="346.9" transform="matrix(-1.836970e-16 1 -1 -1.836970e-16 536.1818 273.549)" class="st16" width="41.2" height="116"/>
		</g>
		<g>
			<defs>
				<path id="SVGID_8_" d="M73.3,389.1h103.7c3.7,0,6.7,3,6.7,6.7v18.7c0,3.7-3,6.7-6.7,6.7H73.3V389.1z"/>
			</defs>
			<clipPath id="SVGID_9_">
				<use xlink:href="#SVGID_8_"  style="overflow:visible;"/>
			</clipPath>
			
				<rect x="73.3" y="389.1" transform="matrix(-1 -1.224647e-16 1.224647e-16 -1 256.9194 810.2476)" class="st17" width="110.4" height="32"/>
			
				<rect x="73.3" y="389.1" transform="matrix(-1 -1.224647e-16 1.224647e-16 -1 256.9194 788.8335)" class="st18" width="110.4" height="10.6"/>
		</g>
	</g>
	<g>
		<path class="st19" d="M268.1,383.8H115.3c-1.8,0-3.3-1.5-3.3-3.3v-31c0-1.8,1.5-3.3,3.3-3.3h152.8V383.8z"/>
		<path class="st0" d="M251.4,376.1H130.8c-1.2,0-2.2-1-2.2-2.2v-15.9c0-1.2,1-2.2,2.2-2.2h120.6V376.1z"/>
		<path class="st2" d="M268.1,358.3H113.8c-1,0-1.9-0.8-1.9-1.9v-8.3c0-1,0.8-1.9,1.9-1.9h154.2V358.3z"/>
		<g>
			<defs>
				<path id="SVGID_10_" d="M327.2,383.8v-37.6h-61.8c-2,0-3.6,1.6-3.6,3.6v30.4c0,2,1.6,3.6,3.6,3.6H327.2z"/>
			</defs>
			<clipPath id="SVGID_11_">
				<use xlink:href="#SVGID_10_"  style="overflow:visible;"/>
			</clipPath>
			
				<rect x="275.7" y="332.3" transform="matrix(-1.836970e-16 1 -1 -1.836970e-16 659.5738 70.4925)" class="st20" width="37.6" height="65.4"/>
		</g>
		<g>
			<defs>
				<path id="SVGID_12_" d="M327.3,349.2h-59.9c-0.9,0-1.7,0.8-1.7,1.7v28.3c0,0.9,0.8,1.7,1.7,1.7h59.9V349.2z"/>
			</defs>
			<clipPath id="SVGID_13_">
				<use xlink:href="#SVGID_12_"  style="overflow:visible;"/>
			</clipPath>
			<rect x="265.7" y="349.2" class="st21" width="61.5" height="31.7"/>
			<path class="st22" d="M327.3,349.2h-59.9c-0.9,0-1.7,0.8-1.7,1.7v28.3c0,0.9,0.8-20.2,1.7-20.2h59.9V349.2z"/>
		</g>
	</g>
	<g>
		
			<linearGradient id="SVGID_14_" gradientUnits="userSpaceOnUse" x1="398.3813" y1="326.5212" x2="398.3813" y2="369.4707" gradientTransform="matrix(-1 0 0 1 516.2048 0)">
			<stop  offset="0" style="stop-color:#272438"/>
			<stop  offset="1" style="stop-color:#304260"/>
		</linearGradient>
		<path class="st23" d="M114.2,326.5c0,0-7.4,8.4-13.3,15.4l3.2,27.6c0,0,0.5-12,9.3-18.2c8.8-6.2,21.4-23.7,21.4-23.7L114.2,326.5z
			"/>
		<path class="st24" d="M115.6,302.4c0,0-6.9,3.8-8.3,4.3c-1.4,0.4-3,1-4.9,0c-1.9-1-6-5.2-6.7-7.9l3.9-2.1l6.1,5.3l7.2-3.6
			L115.6,302.4z"/>
		<path class="st25" d="M127.3,289l-7.9-3.2c0,0-2.4,1.2-4.3,4.9c-2,3.7-5.6,7.6-5.6,7.6l6.5,7.6c0,0,4.5-4.6,6.8-8.6
			C125,293.5,127.3,289,127.3,289z"/>
		
			<linearGradient id="SVGID_15_" gradientUnits="userSpaceOnUse" x1="402.2744" y1="277.1136" x2="403.7328" y2="277.1136" gradientTransform="matrix(-0.866 -0.5 -0.5 0.866 600.6694 248.6841)">
			<stop  offset="0" style="stop-color:#272438"/>
			<stop  offset="1" style="stop-color:#304260"/>
		</linearGradient>
		<path class="st26" d="M108.1,294.3l1.3,0.7l8.3-14.4c0.2-0.3,0.1-0.8-0.3-1l0,0c-0.3-0.2-0.8-0.1-1,0.3L108.1,294.3z"/>
		<path class="st24" d="M134.2,270.5c0,0,0.5,3.9,0.9,5.9c0.4,2,1.1,2.7,1.6,3.2c0.5,0.5,6,4.2,6,4.2s-12,22.3-15.4,10.7
			c-1.1-3.7-5.5-9.7-5.5-9.7s4.2-3.3,4.8-4.9c0.6-1.7,1-6.4,1-6.4L134.2,270.5z"/>
		<path class="st2" d="M129.5,281.6c-0.6,0.4-1.2,0.8-1.8,1.2c-1,0.7-2.1,1.4-3.1,2c-0.6,0.4-1.3,0.7-1.9,1.1
			c-0.5-0.8-0.9-1.3-0.9-1.3s4.2-3.3,4.8-4.9c0.6-1.7,1-6.4,1-6.4l6.7-2.9c0,0,0.5,3.9,0.9,5.9c0,0,0,0,0,0
			C133.3,278.2,131.5,279.9,129.5,281.6z"/>
		<g>
			
				<linearGradient id="SVGID_16_" gradientUnits="userSpaceOnUse" x1="404.8628" y1="336.6291" x2="404.8628" y2="402.3125" gradientTransform="matrix(-1 0 0 1 516.2048 0)">
				<stop  offset="0" style="stop-color:#272438"/>
				<stop  offset="1" style="stop-color:#304260"/>
			</linearGradient>
			<path class="st27" d="M107.4,336.7c-2.4-0.5-7.2,4.9-9.7,11.5c-1.8,4.7-1,11.3-0.2,20.4c0.5,6.2,2.4,33.8,2.4,33.8h7.2
				c0,0,1.3-15.7,1.8-27.2c0.8-16.9,1-19.6,1-19.6l16.4-18.8C126.1,336.7,111.1,337.5,107.4,336.7z"/>
			<path class="st25" d="M129.1,329.7c-6-0.2-15.4-2.6-14.9-3.2c1.2-1.2,2.8-15.1,2.8-18.7c0.1-10.1,2.4-22,2.4-22l5.8-4.2
				c0,0,0.3,4,4.7,4.4c9.8,0.8,9.4-4.6,9.4-4.6s7.8,2.6,10.3,4.7c3.3,2.7,1.8,6-0.1,19.2c-0.8,5.5-0.7,12.1-1.3,17.1
				c-0.5,4.1,0.3,14.2-2.7,13.9C140.6,334.4,134.7,329.5,129.1,329.7z"/>
			
				<linearGradient id="SVGID_17_" gradientUnits="userSpaceOnUse" x1="388.089" y1="386.8438" x2="388.089" y2="392.4443" gradientTransform="matrix(-1 0 0 1 516.2048 0)">
				<stop  offset="0" style="stop-color:#272438"/>
				<stop  offset="1" style="stop-color:#304260"/>
			</linearGradient>
			<path class="st28" d="M127.2,386.9c1.3-0.3,3.8,0.3,5,1.1c1.2,0.8,2.6,0.8,2.6,0.8v3.6h-13.3L127.2,386.9z"/>
			
				<linearGradient id="SVGID_18_" gradientUnits="userSpaceOnUse" x1="414.1353" y1="402.0605" x2="414.1353" y2="409.5472" gradientTransform="matrix(-1 0 0 1 516.2048 0)">
				<stop  offset="0" style="stop-color:#272438"/>
				<stop  offset="1" style="stop-color:#304260"/>
			</linearGradient>
			<polygon class="st29" points="99.9,402.2 106.5,402.1 106.9,406.2 97.2,409.5 			"/>
		</g>
		<path class="st24" d="M147.4,299.6c0,0-6.9,5.6-9.7,7.4c-4.1,2.5-4.6,3.4-6.5,2.9c-1.9-0.5-21.5-16.7-21.5-16.7l1-3.7
			c0,0,8.2,5.5,13.9,8.5c3.2,1.7,7.4,4,7.4,4l7.3-6.2L147.4,299.6z"/>
		<path class="st25" d="M132.9,299.7c0,0,10-9.8,11.3-11c6.6-6.2,9.6-0.2,6.3,7.8c-1,2.5-5.4,8.4-10.1,11
			C137.5,306.5,134.4,301.6,132.9,299.7z"/>
		
			<linearGradient id="SVGID_19_" gradientUnits="userSpaceOnUse" x1="387.3082" y1="329.6072" x2="387.3082" y2="388.8566" gradientTransform="matrix(-1 0 0 1 516.2048 0)">
			<stop  offset="0" style="stop-color:#272438"/>
			<stop  offset="1" style="stop-color:#304260"/>
		</linearGradient>
		<path class="st30" d="M114.3,341c1.9-4,6-5.7,11-11.4c0,0,3.5,0.1,9.4,0.8c4.9,0.6,11,2.7,11,2.7c0.6,3,0.4,6.9-3.3,11.3
			c-2.4,2.9-5.7,1.3-12.2,3.9c-1.3,1.1-2.2,2-2.2,2s-0.1,4.4,2.4,15.4c2.5,11,3.7,23.1,3.7,23.1l-6.7-1.1c0,0-6.1-11.8-8.4-16.8
			c-6.1-12.8-6.5-17.8-7.2-21.4C111.3,346.3,112.6,343.4,114.3,341z"/>
		<g>
			<path id="XMLID_1_" class="st0" d="M117.6,305.6l-11.2,3.2c-1.2,0.3-2.5-0.3-3-1.3l-10.9-23.3c-0.5-1,0-2.2,1.2-2.5l11.1-3.3
				c2-0.2,3,0.2,3.5,1.3l10.9,23.1C119.8,303.9,119.6,304.7,117.6,305.6z"/>
			<path id="XMLID_4_" class="st31" d="M116.3,305.8l-11.2,3.2c-1.2,0.3-2.5-0.3-3-1.3l-10.9-23.3c-0.5-1,0-2.2,1.2-2.5l11.1-3.3
				c2-0.2,3,0.2,3.5,1.3l10.9,23.1C118.4,304.2,118.2,304.9,116.3,305.8z"/>
			<path id="XMLID_3_" class="st32" d="M116.1,306l-11.3,3.3c-1.2,0.3-2.5-0.3-3-1.3l-10.9-23.4c-0.5-1,0-2.2,1.2-2.5l11.2-3.3
				c1.2-0.3,2.6,0.2,3.1,1.3l11,23.3C117.8,304.5,117.3,305.7,116.1,306z"/>
			<g>
				<path class="st31" d="M92.2,287.2l1.4-0.6c0.3-0.1,0.4-0.4,0.3-0.6l0,0c-0.1-0.3-0.4-0.4-0.6-0.3l-1.4,0.6
					c-0.3,0.1-0.4,0.4-0.3,0.6l0,0C91.7,287.2,92,287.3,92.2,287.2z"/>
				<path class="st31" d="M93.8,291.1l1.4-0.6c0.3-0.1,0.4-0.4,0.3-0.6l0,0c-0.1-0.3-0.4-0.4-0.6-0.3l-1.4,0.6
					c-0.3,0.1-0.4,0.4-0.3,0.6l0,0C93.3,291.1,93.6,291.2,93.8,291.1z"/>
				<path class="st31" d="M95.5,294.9l1.4-0.6c0.3-0.1,0.4-0.4,0.3-0.6l0,0c-0.1-0.3-0.4-0.4-0.6-0.3l-1.4,0.6
					c-0.3,0.1-0.4,0.4-0.3,0.6l0,0C94.9,294.9,95.2,295.1,95.5,294.9z"/>
				<path class="st31" d="M97.1,298.8l1.4-0.6c0.3-0.1,0.4-0.4,0.3-0.6l0,0c-0.1-0.3-0.4-0.4-0.6-0.3l-1.4,0.6
					c-0.3,0.1-0.4,0.4-0.3,0.6l0,0C96.5,298.8,96.8,298.9,97.1,298.8z"/>
				<path class="st31" d="M98.7,302.7l1.4-0.6c0.3-0.1,0.4-0.4,0.3-0.6l0,0c-0.1-0.3-0.4-0.4-0.6-0.3l-1.4,0.6
					c-0.3,0.1-0.4,0.4-0.3,0.6l0,0C98.1,302.7,98.4,302.8,98.7,302.7z"/>
				<path class="st31" d="M100.3,306.6l1.4-0.6c0.3-0.1,0.4-0.4,0.3-0.6l0,0c-0.1-0.3-0.4-0.4-0.6-0.3l-1.4,0.6
					c-0.3,0.1-0.4,0.4-0.3,0.6l0,0C99.8,306.6,100.1,306.7,100.3,306.6z"/>
			</g>
		</g>
		<g>
			<path class="st24" d="M97,299c-0.2-0.5-0.4-0.9-0.6-1.4c0.7-0.3,1.8-0.9,2.4-1.2c1.2-0.6,2.2-0.7,2.2-0.7l0.3,1.2
				c0,0-1.2,0.3-2.2,0.8C98.5,298.1,97.6,298.6,97,299z"/>
			<path class="st24" d="M96.4,297.4c-0.2-0.5-0.4-1-0.6-1.4c1.4-0.9,3.4-1.7,3.4-1.7l0.7,0.9c0,0-1.6,0.9-2.3,1.3
				C97.2,296.8,96.8,297.2,96.4,297.4z"/>
			<path class="st24" d="M97.7,300.5c-0.2-0.4-0.4-0.9-0.6-1.3c0.8-0.3,2.1-0.7,2.6-1c0.7-0.4,1.1-0.5,1.1-0.5l0.4,1.1
				c0,0-1,0.8-2.4,1.3C98.4,300.2,98,300.3,97.7,300.5z"/>
			<path class="st24" d="M97.8,300.7c0.7-0.1,1.6-0.3,2-0.6c0.6-0.4,0.9-0.4,0.9-0.4l0.2,0.9c0,0-1.2,0.6-2.6,1.3
				C98.1,301.5,98,301.1,97.8,300.7z"/>
			<polygon class="st24" points="99.3,301.4 98.3,301.9 96.4,300.8 94.9,296.6 96,294.3 			"/>
		</g>
		
			<rect x="124.2" y="392.4" transform="matrix(-1 -1.224647e-16 1.224647e-16 -1 258.9972 787.2182)" class="st33" width="10.5" height="2.3"/>
		<path class="st24" d="M118.5,266.6c0.1,2.2,1.1,7,1.8,8.9c1,2.7,2.9,4.7,5,5.4c2.1,0.7,5.3-1.9,6.6-4c1.4-2,1-4.6,1-7.1
			c0-2.5-1-4.9-1-4.9s0.2-4.1-2.1-5.3C121.1,255.2,118.5,264.5,118.5,266.6z"/>
		<path class="st34" d="M117.9,265.4c2.5,0.1,3.2-2.9,8.3-1.3c2,0.6,3.4-0.9,3.4-0.9c0.4,1.5-0.5,1.8-0.3,3.1
			c0.2,1.3,2.1,2.2,2.1,2.2s0.5,2,1.2,2.5c0.6,0.5,2.2,4.7,2.2,4.7s1.4-4.1,1.4-4.7c0.1-0.6,1.9-2.1,2.6-4.2
			c0.7-2.2-0.6-10.6-5.8-10.1c0,0-5.7-3.8-12.3,1.6C118.1,260.3,117.9,265.4,117.9,265.4z"/>
		<path class="st24" d="M131.6,269c-0.1-1-0.6-3.5,1.6-3.8c2.2-0.4,2.1,3,1.4,3.9c-0.7,0.9-1.5,2.6-1.5,2.6S131.7,270.4,131.6,269z"
			/>
	</g>
	<g>
		<g>
			
				<rect x="171.8" y="184.6" transform="matrix(-1 -1.224647e-16 1.224647e-16 -1 412.4612 372.8188)" class="st9" width="68.9" height="3.7"/>
			
				<rect x="174.3" y="185.3" transform="matrix(-1 -1.224647e-16 1.224647e-16 -1 417.5923 374.2849)" class="st8" width="68.9" height="3.7"/>
			<polygon class="st8" points="191.6,189.6 173.7,313.2 153.2,308.3 171.7,184.8 			"/>
			<polygon class="st9" points="188.8,188.9 191.6,189.6 173.2,313.4 170.3,312.7 			"/>
			<polygon class="st9" points="174.3,185.4 156.3,309 153.2,308.3 171.7,184.8 			"/>
			<polygon class="st9" points="191.7,189.6 250,190.8 228.3,311.2 173.2,313.4 			"/>
			<polygon class="st10" points="191.7,189.6 250,190.8 228.3,311.2 173.2,313.4 			"/>
			<polygon class="st8" points="233.6,246 237.2,225.2 194,214.8 190.3,235.6 			"/>
		</g>
		<g>
			<polygon class="st8" points="215.6,179.6 216.1,310.3 191.1,310.3 191.1,179.6 			"/>
			<polygon class="st35" points="212,179.6 215.6,179.6 215.6,310.7 212,310.7 			"/>
			<polygon class="st35" points="194.3,179.6 194.8,310.3 191.1,310.3 191.1,179.6 			"/>
			
				<rect x="215.6" y="179.5" transform="matrix(-1 -1.224647e-16 1.224647e-16 -1 502.3941 490.2027)" class="st35" width="71.2" height="131.1"/>
			
				<rect x="238.8" y="189.5" transform="matrix(-1.836970e-16 1 -1 -1.836970e-16 465.924 -33.9909)" class="st8" width="22.3" height="53"/>
		</g>
		<g>
			<path class="st36" d="M315.2,127.8l72.3,68.7c0.2,0.2,0.2,0.4,0.1,0.7l-2.5,4.6l-96.7-28.5c0,0,0,0,0,0l-77.3-65.7l2.5-4.6
				c0.1-0.2,0.4-0.3,0.6-0.3l97.6,23.3C313.1,126.3,314.3,126.9,315.2,127.8z"/>
			<path class="st11" d="M316.2,136.3l68.9,65.5l-99.3-23.5c-0.1,0-0.1-0.1-0.2-0.1l-74.6-70.6l93.1,22.2
				C308.7,130.9,312.8,133.1,316.2,136.3z"/>
			<g>
				<path class="st36" d="M301.1,149.1c25.1,13.6,43,29.2,40,34.8L318.8,225l-90.9-49.2l22.3-41.2C253.2,129,276,135.5,301.1,149.1z
					"/>
				<path class="st11" d="M227.9,175.8c-0.3,0.5-0.4,1-0.3,1.7c0.4,6.6,17.3,20.7,40.3,33.1c22.9,12.4,43.9,18.9,49.7,15.7
					c0.6-0.3,1-0.7,1.2-1.2c3-5.6-14.9-21.2-40-34.8C253.7,176.7,230.9,170.2,227.9,175.8z"/>
				<path class="st37" d="M227.6,177.5c0.4,6.6,17.3,20.7,40.3,33.1c22.9,12.4,43.9,18.9,49.7,15.7c1.3-6.4-15.8-21.3-39.7-34.2
					C254,179.1,232.2,172.9,227.6,177.5z"/>
			</g>
			<g>
				<path class="st38" d="M351.8,210.9c0,0-4,9.7-4.4,17.3c-0.4,7.6,1.2,15,1.2,15l1.5,1.6l1.6-1.1l1.5,2.6l1.1-2.3l1.9,1.9l1.5-1.5
					l0.8,3.3l2.3-1.7l2.2,0.5c0,0,1.5-8.6,1.9-12.2c1.1-9.8-0.2-15.3-2.3-22.9C358.8,197.9,351.8,210.9,351.8,210.9z"/>
				<path class="st39" d="M332.6,143c0,0,22.2,19.1,26.3,26.2c4,7.1-1.5,32.2-1.5,32.2"/>
				<path class="st40" d="M362.6,211.5l-10.8-0.6l0.6-10.2c0.2-3,2.7-5.3,5.7-5.1l0,0c3,0.2,5.3,2.7,5.1,5.7L362.6,211.5z"/>
			</g>
			<g>
				<defs>
					<path id="SVGID_20_" d="M227.6,177.5c4.2-4.2,31.6,2,59.9,20.1c22.1,14.1,31.4,22.8,30.1,28.7c-1.9,1.1,1.6,6.5-3.4,5.4
						l4.9,81.7H211V179L227.6,177.5z"/>
				</defs>
				<clipPath id="SVGID_21_">
					<use xlink:href="#SVGID_20_"  style="overflow:visible;"/>
				</clipPath>
				<g class="st41">
					<polygon class="st8" points="236.7,179.6 237.3,310.3 216.6,310.3 216.5,179.6 					"/>
					<polygon class="st42" points="233.2,179.6 236.7,179.6 236.8,310.7 233.2,310.7 					"/>
					<polygon class="st42" points="219.8,179.6 220.3,310.3 216.6,310.3 216.5,179.6 					"/>
					
						<rect x="236.8" y="179.5" transform="matrix(-1 -1.224647e-16 1.224647e-16 -1 544.6882 490.2027)" class="st42" width="71.2" height="131.1"/>
					
						<rect x="236.8" y="179.5" transform="matrix(-1 -1.224647e-16 1.224647e-16 -1 544.6882 490.2027)" class="st10" width="71.2" height="131.1"/>
					
						<rect x="260" y="189.5" transform="matrix(-1.836970e-16 1 -1 -1.836970e-16 487.0711 -55.138)" class="st8" width="22.3" height="53"/>
				</g>
			</g>
		</g>
	</g>
	<g>
		<g>
			<path class="st43" d="M199.2,346.5v-34.6H302c9.6,0,17.3,7.8,17.3,17.3v0c0,9.6-7.8,17.3-17.3,17.3H199.2z"/>
			<path class="st8" d="M179.7,343v-27.6c0-1.9,1.6-3.5,3.5-3.5h99.2c9.6,0,17.3,7.8,17.3,17.3v0c0,9.6-7.8,17.3-17.3,17.3h-99.2
				C181.3,346.5,179.7,345,179.7,343z"/>
			<path class="st43" d="M177.3,343v-27.6c0-1.9,1.6-3.5,3.5-3.5h72c9.6,0,17.3,7.8,17.3,17.3l0,0c0,9.6-7.8,17.3-17.3,17.3h-72
				C178.8,346.5,177.3,345,177.3,343z"/>
			<path class="st43" d="M159.2,343v-27.6c0-1.9,1.6-3.5,3.5-3.5h72.8c9.1,0,16.4,7.4,16.4,16.4v1.8c0,9.1-7.4,16.4-16.4,16.4h-72.8
				C160.8,346.5,159.2,345,159.2,343z"/>
		</g>
		<g>
			<defs>
				<path id="SVGID_22_" d="M153.7,346.5v-34.6h56.4c9.6,0,17.3,7.8,17.3,17.3v0c0,9.6-7.8,17.3-17.3,17.3H153.7z"/>
			</defs>
			<clipPath id="SVGID_23_">
				<use xlink:href="#SVGID_22_"  style="overflow:visible;"/>
			</clipPath>
			<path class="st44" d="M153.7,346.5v-34.6h56.4c9.6,0,17.3,7.8,17.3,17.3v0c0,9.6-7.8,17.3-17.3,17.3H153.7z"/>
		</g>
		<g>
			<defs>
				<path id="SVGID_24_" d="M153.6,315.8h55.3c7.4,0,13.4,6,13.4,13.4l0,0c0,7.4-6,13.4-13.4,13.4h-55.3V315.8z"/>
			</defs>
			<clipPath id="SVGID_25_">
				<use xlink:href="#SVGID_24_"  style="overflow:visible;"/>
			</clipPath>
			
				<rect x="153.6" y="315.8" transform="matrix(-1 -1.224647e-16 1.224647e-16 -1 375.927 658.2304)" class="st45" width="68.7" height="26.7"/>
			
				<rect x="153.6" y="315.8" transform="matrix(-1 -1.224647e-16 1.224647e-16 -1 375.927 637.6414)" class="st46" width="68.7" height="6.1"/>
		</g>
	</g>
	<g>
		<g>
			<path class="st0" d="M265.8,252.9c0.8-1.3,4.6-3.8,4.6-3.8s3.4,3.6,4.2,7.8c0.9,4.1,8.7,20.2,9,21.6c0.3,1.4-0.5,7.1-0.5,7.1
				l-6.7-2.3c0,0-0.4-4.3-2.7-7.3c-2.3-3-7.9-10.6-8.7-15.8S263.9,256,265.8,252.9z"/>
			<path class="st24" d="M252.7,236.7c0,0,0.1,0.6-0.2,2.7c-0.2,2.1-1.2,3.3-1.7,3.9c-0.5,0.7-4.1,2.4-4.9,2.9
				c0,0,8.1,10.5,13.9,10.3c11.1-0.5,5.4-10.1,5.4-10.1s-3.6-1.5-4.9-2.6c-0.8-0.6-1.1-4.3-1.1-4.3L252.7,236.7z"/>
			<path class="st0" d="M260.4,243.7c0,0,2.6,5.9-1.3,6.6c-6.3,1-8.2-7-8.2-7l-6.9,3.6l9.2,14.3L267,254l-0.3-6.9L260.4,243.7z"/>
			<g>
				<polygon class="st47" points="287,355.3 286.6,359.8 289.3,366.7 281.2,362.9 281.5,356.3 				"/>
				<path class="st48" d="M274.9,292.2c0,0,15.6,12.8,17.3,16.8c1.7,4-4.1,48-4.1,48l-7.6-0.5c0,0-0.7-14.5-1.4-22.1
					c-0.7-8,0.1-19.6,0.1-19.6s-8.8-3.6-13.2-4.6c-18-4.3-14.3-15.6-14-22.8L274.9,292.2z"/>
			</g>
			<g>
				<path class="st48" d="M261.3,294.2c0,0,12.1,8.7,13.8,12.6c1.7,4-13.2,51.3-13.2,51.3l-7.4,0.3c0,0,3.5-19.8,4.3-27.5
					c0.7-7.7,1.8-17.1,1.8-17.1s-10.2-1.5-14.2-3.6c-7-3.7-5.2-8.8-5-16H261.3z"/>
				<polygon class="st47" points="261.9,358.2 261.1,361.5 263.7,370.6 254.5,365.5 256.5,356.7 				"/>
			</g>
			<path class="st35" d="M249.2,244.1c0,0,1.9,11.1,10.7,11.1c0,0,3.7,25.9,3.4,28.8c-0.3,2.9,0.5,11.1-1.5,12.5
				c-4.9,3.5-17.9,1.6-20.5,1.6c0,0-0.9-11.9-1.2-19c-0.3-7.1,2.7-16.6,2.4-20.1c-0.3-3.5-4.1-9.7-4.1-9.7L249.2,244.1z"/>
			<path class="st35" d="M262.3,244.7c0,0,3.6,7.9-2.5,10.4c0,0,0.4,37.5,2.6,40.2c2.3,2.7,13.4,0.7,14,1c0.6,0.3-4.4-14-4.4-17.5
				s-1.7-29.9-1.7-29.9L262.3,244.7z"/>
			<path class="st24" d="M269.3,229c-0.1,1.8-1.5,5.7-1.8,8.4c-0.3,2.8-1.6,4.9-3.4,6.3c-1.8,1.4-4.4,1.3-5.8,0.5
				c-1.4-0.8-4.3-1.9-5.8-7.2c-1.5-5.3-0.1-9.9-0.1-9.9l8.6-1.6L269.3,229z"/>
			<path class="st47" d="M270.2,230.3c-2.5,2-4.2,0.6-5.8-0.1c-2-0.9-6.8-3.6-6.8-3.6s-1.1,2.5-1.1,4.4c0,1.9-1.1,3.4-1.1,3.4
				s0.2-2.1-1-3c-1.2-0.9-2,1.6-1.6,3.4c0.4,1.8,0.9,2.4,0.9,2.4s-0.6,1.2-1.2,2.8c0,0-0.9-4.9-1.9-6.8c-0.9-1.9-1.2-4.6-0.3-7.4
				c0.9-2.8,5.1-2.4,5.1-2.4s4.2-4.4,8.5-2.8c4.3,1.6,7.6,6.2,8.2,5.4C272.1,226,272.5,228.4,270.2,230.3z"/>
			<path class="st47" d="M255.9,232.4c0,0.2,0.5,0.3,0.5,0.4c0.2,0.1,0.1,0.1,0.5,1.4c0.3,1,1.2,1.5,3.4,1.6
				c1.6,0.1,1.8-1.1,2.1-1.5c0.3-0.5,0.5-0.5,0.7-0.5c0.2,0,0.4,0.1,0.5,0.7c0.1,0.5,0.3,1.8,1.9,2.1c1.2,0.3,1.9-0.1,2.3-0.7
				c0.7-1.2,0.7-1.1,0.9-1.2c0.2-0.1,0.4-0.6,0.4-0.9c0-0.3-0.9-0.5-1.9-0.7c-1-0.2-2.4-0.4-3.1-0.2c-0.6,0.1-0.6,0.3-0.9,0.3
				c-0.3,0-0.3-0.2-0.8-0.6c-0.5-0.3-3.1-0.7-4.1-0.9c-1-0.2-2.3-0.3-2.4,0C255.9,232,255.9,232.2,255.9,232.4z M264.2,233.8
				c0.2-0.4,0.6-0.3,1.8-0.2c1.2,0.1,1.7,0.2,1.9,0.4c0.2,0.2,0.2,0.8-0.3,1.5c-0.5,0.8-0.9,1.2-1.9,1c-1-0.2-1.5-0.8-1.6-1.5
				C264.1,234.4,264.2,233.9,264.2,233.8z M257.4,232.3c0.2-0.2,1.8,0.2,3,0.4c1.2,0.2,1.6,0.3,1.7,0.7c0,0.1-0.1,0.7-0.3,1.3
				c-0.3,0.6-0.6,1.1-2.5,0.8c-1.3-0.2-1.8-0.7-2.1-1.6C257,233.1,257.2,232.5,257.4,232.3z"/>
		</g>
		<g>
			<path class="st49" d="M260.3,295.6l0.9-2.7c0,0,7.1,2.3,9.1,2.7c2,0.5,5.1,2,5.1,2h-12.5L260.3,295.6z"/>
			<path class="st0" d="M263.6,293.5l-0.8,4.1c0,0-18.2-1.3-21.4-6.7c-1.6-2.6-2.1-3-3.8-11.7c-3.8-19-1.7-28.8,0.9-29.8
				c2.6-1.1,7.1,4.5,6.6,9.2s3.6,26,3.6,26S254.1,289,263.6,293.5z"/>
		</g>
		<g>
			<polygon class="st33" points="268.4,298.9 275.9,298.9 283.5,272.5 277.7,272.5 			"/>
			<polygon class="st50" points="270.5,298.9 300,298.9 307.6,272.5 278.1,272.5 			"/>
			
				<rect x="266.2" y="298.3" transform="matrix(-1 -1.224647e-16 1.224647e-16 -1 566.2097 598.5513)" class="st50" width="33.8" height="2"/>
			
				<rect x="249.3" y="298.3" transform="matrix(-1 -1.224647e-16 1.224647e-16 -1 515.493 598.5513)" class="st33" width="16.9" height="2"/>
			<path class="st33" d="M286.7,287c-0.9,2-0.3,4.2,1.3,4.9c1.6,0.7,3.6-0.4,4.4-2.4c0.9-2,0.3-4.2-1.3-4.9
				C289.6,283.8,287.6,284.9,286.7,287z"/>
		</g>
	</g>
</g>
<g id="DESIGNED_BY_FREEPIK" class="st51">
	<g class="st52">
		<g id="XMLID_319_">
			<g id="XMLID_338_">
				<path id="XMLID_346_" class="st53" d="M260.1,457.7c-0.4,0.4-0.8,0.9-1.1,1.5l-0.5-0.2c-0.1-0.3-0.3-0.5-0.7-0.5
					c-0.3,0-0.6,0.3-0.5,0.7s0.3,0.6,0.7,0.5c0.1,0,0.1,0,0.2-0.1l0.5,0.2c-0.3,0.6-0.4,1.1-0.5,1.7l0.7,0.1
					c0.2-1.3,0.8-2.5,1.8-3.5L260.1,457.7z"/>
				<path id="XMLID_345_" class="st53" d="M265.6,455.4c-0.2,0-0.3,0-0.5,0l-0.1-0.6c0.2-0.1,0.3-0.4,0.3-0.6c0-0.4-0.4-0.7-0.8-0.6
					s-0.7,0.4-0.6,0.8c0,0.3,0.2,0.5,0.4,0.6l0.1,0.6c-0.7,0.1-1.4,0.3-2.1,0.6l0.3,0.7c0.9-0.4,1.9-0.7,3-0.7c0.5,0,1,0.1,1.5,0.2
					l0.2-0.7C266.7,455.4,266.1,455.4,265.6,455.4z"/>
				<path id="XMLID_344_" class="st53" d="M272.2,457.9c0.3,0,0.6-0.3,0.5-0.7c0-0.3-0.3-0.6-0.7-0.5c-0.3,0-0.5,0.3-0.5,0.6
					l-0.4,0.4c-0.4-0.4-0.9-0.8-1.4-1.1l-0.4,0.6c1.1,0.7,2,1.7,2.6,2.9l0.7-0.3c-0.3-0.6-0.6-1.1-0.9-1.5l0.4-0.4
					C272.1,457.9,272.1,457.9,272.2,457.9z"/>
				<path id="XMLID_343_" class="st53" d="M265,465.6c-0.4,0-0.8,0-1.2,0c-0.9,0-1.7-0.1-2.5-0.2c-0.4-0.1-0.8-0.2-1.3-0.3
					c1,1.9,3.1,3.1,5.4,3.1c2.9,0,5.3-1.9,5.9-4.5c-0.7,0.4-1.5,0.8-2.5,1.1C267.8,465.3,266.5,465.5,265,465.6z"/>
				<path id="XMLID_339_" class="st53" d="M265.6,456.9c-3.4,0-6.1,2.7-6.1,5.9c0,0.4,0,0.8,0.1,1.3c0.7,0.5,2.7,0.9,5.3,0.7
					c2.9-0.2,5.3-1,6.7-2.2c0-0.2,0-0.4,0-0.6C271.2,459.1,268.7,456.9,265.6,456.9z M263.4,463.4c-1,0-1.8-0.8-1.8-1.8
					c0-1,0.8-1.8,1.8-1.8c1,0,1.8,0.8,1.8,1.8C265.3,462.6,264.5,463.4,263.4,463.4z M268.2,462.5c-0.8,0-1.4-0.6-1.4-1.4
					s0.6-1.4,1.4-1.4c0.8,0,1.4,0.6,1.4,1.4S268.9,462.5,268.2,462.5z"/>
			</g>
			<path id="XMLID_336_" class="st53" d="M281.6,458.8c-0.3-0.1-0.8-0.3-1.4-0.2c-0.6,0.1-0.8,0.3-0.8,1v0.9h2.2v1.7h-2.2v5.5h-1.9
				v-5.5h-1.3v-1.7h1.3v-0.9c0-1.7,0.9-2.8,2.6-2.8c0.6,0,1.2,0.1,1.6,0.3L281.6,458.8z"/>
			<path id="XMLID_334_" class="st53" d="M286.3,462.1c-0.2,0-0.4,0-0.5,0c-0.9,0-1.5,0.5-1.5,1.6v3.9h-1.9v-7.2h1.9v0.8
				c0.5-0.7,1.1-1,2-1c0.4,0,0.8,0.1,1.1,0.3L286.3,462.1z"/>
			<path id="XMLID_331_" class="st53" d="M294,464c0,0.2,0,0.5,0,0.7h-5.1c0.2,1,0.9,1.5,1.8,1.5c0.6,0,1.3-0.3,1.8-0.7l1.1,1.2
				c-0.8,0.7-1.9,1.1-3.1,1.1c-2.2,0-3.7-1.5-3.7-3.8c0-2.3,1.5-3.8,3.6-3.8C292.5,460.2,294,461.7,294,464z M288.9,463.3h3.2
				c-0.2-0.9-0.7-1.4-1.6-1.4C289.6,461.9,289,462.4,288.9,463.3z"/>
			<path id="XMLID_328_" class="st53" d="M301.6,464c0,0.2,0,0.5,0,0.7h-5.1c0.2,1,0.9,1.5,1.8,1.5c0.6,0,1.3-0.3,1.8-0.7l1.1,1.2
				c-0.8,0.7-1.9,1.1-3.1,1.1c-2.2,0-3.7-1.5-3.7-3.8c0-2.3,1.5-3.8,3.6-3.8C300.2,460.2,301.6,461.7,301.6,464z M296.5,463.3h3.2
				c-0.2-0.9-0.7-1.4-1.6-1.4C297.2,461.9,296.7,462.4,296.5,463.3z"/>
			<path id="XMLID_325_" class="st53" d="M310,464c0,2.2-1.5,3.8-3.5,3.8c-1,0-1.6-0.4-2.1-0.9v3.7h-1.9v-10.1h1.9v0.8
				c0.5-0.6,1.2-1,2.1-1C308.5,460.2,310,461.8,310,464z M304.3,464c0,1.1,0.7,2,1.8,2c1.1,0,1.9-0.9,1.9-2c0-1.1-0.7-2-1.9-2
				C305,462,304.3,462.9,304.3,464z"/>
			<path id="XMLID_322_" class="st53" d="M313.1,458.1c0,0.7-0.5,1.2-1.2,1.2c-0.7,0-1.2-0.5-1.2-1.2c0-0.7,0.5-1.2,1.2-1.2
				C312.5,456.8,313.1,457.4,313.1,458.1z M312.8,467.6h-1.9v-7.2h1.9V467.6z"/>
			<path id="XMLID_320_" class="st53" d="M316,463l2.7-2.6h2.4l-3.5,3.4l3.5,3.8h-2.4l-2.7-2.9v2.9h-1.9v-10.7h1.9V463z"/>
		</g>
		<g>
			<path class="st53" d="M184.4,467.5v-1.1c-0.5,0.7-1.4,1.2-2.4,1.2c-1.8,0-3.1-1.4-3.1-3.7c0-2.3,1.3-3.7,3.1-3.7
				c1,0,1.8,0.5,2.4,1.2v-3.8h1.1v9.8H184.4z M184.4,465.6v-3.2c-0.4-0.6-1.2-1.1-2.1-1.1c-1.4,0-2.3,1.2-2.3,2.7
				c0,1.6,0.8,2.7,2.3,2.7C183.2,466.7,184,466.2,184.4,465.6z"/>
			<path class="st53" d="M186.9,464c0-2.1,1.5-3.7,3.5-3.7c2.1,0,3.4,1.7,3.4,3.8v0.3h-5.7c0.1,1.3,1,2.4,2.5,2.4
				c0.8,0,1.6-0.3,2.2-0.9l0.5,0.7c-0.7,0.7-1.7,1.1-2.8,1.1C188.4,467.7,186.9,466.2,186.9,464z M190.4,461.2
				c-1.5,0-2.3,1.3-2.3,2.4h4.6C192.7,462.5,192,461.2,190.4,461.2z"/>
			<path class="st53" d="M194.6,466.6l0.6-0.8c0.5,0.5,1.4,1,2.3,1c1.1,0,1.7-0.5,1.7-1.2c0-1.7-4.4-0.7-4.4-3.3c0-1.1,1-2,2.6-2
				c1.2,0,2.1,0.5,2.6,1l-0.5,0.8c-0.4-0.5-1.2-0.9-2.1-0.9c-1,0-1.6,0.5-1.6,1.1c0,1.6,4.4,0.5,4.4,3.3c0,1.2-1,2.1-2.8,2.1
				C196.3,467.7,195.3,467.3,194.6,466.6z"/>
			<path class="st53" d="M201.5,458.7c0-0.4,0.3-0.7,0.7-0.7c0.4,0,0.7,0.3,0.7,0.7c0,0.4-0.3,0.7-0.7,0.7
				C201.8,459.4,201.5,459.1,201.5,458.7z M201.7,467.5v-7.1h1.1v7.1H201.7z"/>
			<path class="st53" d="M204.6,469.3l0.6-0.8c0.6,0.7,1.3,1,2.3,1c1.2,0,2.3-0.6,2.3-2.1v-1c-0.5,0.7-1.4,1.3-2.4,1.3
				c-1.8,0-3.1-1.4-3.1-3.7c0-2.3,1.3-3.7,3.1-3.7c1,0,1.8,0.5,2.4,1.2v-1.1h1.1v6.9c0,2.3-1.6,3.1-3.4,3.1
				C206.2,470.4,205.4,470.2,204.6,469.3z M209.7,465.5v-3.1c-0.4-0.6-1.2-1.1-2.1-1.1c-1.4,0-2.3,1.1-2.3,2.7
				c0,1.6,0.8,2.7,2.3,2.7C208.5,466.6,209.3,466.1,209.7,465.5z"/>
			<path class="st53" d="M217.4,467.5v-4.6c0-1.2-0.6-1.6-1.6-1.6c-0.9,0-1.7,0.5-2.1,1.1v5.2h-1.1v-7.1h1.1v1
				c0.5-0.6,1.5-1.2,2.5-1.2c1.5,0,2.3,0.7,2.3,2.3v5H217.4z"/>
			<path class="st53" d="M219.9,464c0-2.1,1.5-3.7,3.5-3.7c2.1,0,3.4,1.7,3.4,3.8v0.3h-5.7c0.1,1.3,1,2.4,2.5,2.4
				c0.8,0,1.6-0.3,2.2-0.9l0.5,0.7c-0.7,0.7-1.7,1.1-2.8,1.1C221.4,467.7,219.9,466.2,219.9,464z M223.4,461.2
				c-1.5,0-2.3,1.3-2.3,2.4h4.6C225.7,462.5,225,461.2,223.4,461.2z"/>
			<path class="st53" d="M233.4,467.5v-1.1c-0.5,0.7-1.4,1.2-2.4,1.2c-1.8,0-3.1-1.4-3.1-3.7c0-2.3,1.3-3.7,3.1-3.7
				c1,0,1.8,0.5,2.4,1.2v-3.8h1.1v9.8H233.4z M233.4,465.6v-3.2c-0.4-0.6-1.2-1.1-2.1-1.1c-1.4,0-2.3,1.2-2.3,2.7
				c0,1.6,0.8,2.7,2.3,2.7C232.1,466.7,233,466.2,233.4,465.6z"/>
			<path class="st53" d="M239.7,467.5v-9.8h1.1v3.8c0.6-0.8,1.4-1.2,2.4-1.2c1.8,0,3.1,1.5,3.1,3.7c0,2.3-1.3,3.7-3.1,3.7
				c-1,0-1.9-0.5-2.4-1.2v1.1H239.7z M242.9,466.7c1.4,0,2.3-1.2,2.3-2.7c0-1.6-0.8-2.7-2.3-2.7c-0.9,0-1.7,0.5-2.1,1.1v3.2
				C241.2,466.2,242,466.7,242.9,466.7z"/>
			<path class="st53" d="M247.5,469.3c0.2,0.1,0.4,0.1,0.6,0.1c0.5,0,0.8-0.2,1.1-0.7l0.5-1.1l-3-7.1h1.2l2.4,5.8l2.3-5.8h1.2
				l-3.5,8.5c-0.4,1-1.1,1.4-2.1,1.4c-0.2,0-0.6,0-0.8-0.1L247.5,469.3z"/>
		</g>
	</g>
</g>
</svg>
